<svg width="512" height="512" viewBox="0 0 512 512" fill="none" xmlns="http://www.w3.org/2000/svg">
  <title>bm.md</title>
  <rect width="512" height="512" fill="#05070A" />
  <g fill="#586373" shape-rendering="crispEdges">
    <rect x="35" y="117" width="32" height="32" />
    <rect x="76" y="117" width="32" height="32" />
    <rect x="117" y="117" width="32" height="32" />
    <rect x="35" y="158" width="32" height="32" />
    <rect x="35" y="199" width="32" height="32" />
    <rect x="35" y="240" width="32" height="32" />
    <rect x="35" y="281" width="32" height="32" />
    <rect x="35" y="322" width="32" height="32" />
    <rect x="35" y="363" width="32" height="32" />
    <rect x="76" y="363" width="32" height="32" />
    <rect x="117" y="363" width="32" height="32" />
    <rect x="363" y="117" width="32" height="32" />
    <rect x="404" y="117" width="32" height="32" />
    <rect x="445" y="117" width="32" height="32" />
    <rect x="445" y="158" width="32" height="32" />
    <rect x="445" y="199" width="32" height="32" />
    <rect x="445" y="240" width="32" height="32" />
    <rect x="445" y="281" width="32" height="32" />
    <rect x="445" y="322" width="32" height="32" />
    <rect x="363" y="363" width="32" height="32" />
    <rect x="404" y="363" width="32" height="32" />
    <rect x="445" y="363" width="32" height="32" />
  </g>
  <g fill="#A9B4C3" shape-rendering="crispEdges">
    <rect x="240" y="199" width="32" height="32" />
    <rect x="199" y="240" width="32" height="32" />
    <rect x="240" y="240" width="32" height="32" />
    <rect x="281" y="240" width="32" height="32" />
    <rect x="240" y="281" width="32" height="32" />
  </g>
</svg>
